<svg width="183" height="48" viewBox="0 0 183 48" fill="none" xmlns="http://www.w3.org/2000/svg">
<g clip-path="url(#clip0_450_26737)">
<path d="M65.9057 36.8907C64.2987 36.8907 62.8432 36.6346 61.539 36.1222C60.2581 35.5865 59.1518 34.7947 58.2203 33.7467C57.312 32.6987 56.6133 31.4061 56.1242 29.869C55.6352 28.3087 55.3906 26.5037 55.3906 24.4543C55.3906 22.4048 55.6352 20.5883 56.1242 19.0046C56.6133 17.3977 57.312 16.0585 58.2203 14.9872C59.1518 13.8926 60.2581 13.0659 61.539 12.5069C62.8432 11.948 64.2987 11.6685 65.9057 11.6685C68.0949 11.6685 69.9114 12.1343 71.3554 13.0659C72.7993 13.9974 73.9521 15.4064 74.8138 17.2929L70.8663 19.3889C70.517 18.2943 69.9464 17.421 69.1546 16.7689C68.3627 16.0935 67.2798 15.7558 65.9057 15.7558C64.1823 15.7558 62.8082 16.338 61.7835 17.5025C60.7821 18.6669 60.2814 20.2972 60.2814 22.3932V26.2359C60.2814 28.3552 60.7821 29.9855 61.7835 31.1267C62.8082 32.2445 64.1823 32.8035 65.9057 32.8035C67.2798 32.8035 68.3976 32.4309 69.2593 31.6856C70.1443 30.9403 70.7848 30.0204 71.1807 28.9258L74.9186 31.1267C74.0336 32.9432 72.8575 34.3639 71.3903 35.3886C69.9231 36.39 68.0949 36.8907 65.9057 36.8907Z" fill="white"/>
<path d="M85.12 36.8908C83.8158 36.8908 82.6397 36.6695 81.5917 36.227C80.567 35.7845 79.682 35.1441 78.9367 34.3057C78.2147 33.4672 77.6558 32.4658 77.2599 31.3014C76.864 30.1136 76.666 28.7861 76.666 27.3189C76.666 25.8517 76.864 24.5358 77.2599 23.3714C77.6558 22.2069 78.2147 21.2171 78.9367 20.402C79.682 19.5636 80.567 18.9231 81.5917 18.4806C82.6397 18.0381 83.8158 17.8169 85.12 17.8169C86.4242 17.8169 87.6003 18.0381 88.6483 18.4806C89.6963 18.9231 90.5813 19.5636 91.3033 20.402C92.0485 21.2171 92.6191 22.2069 93.015 23.3714C93.411 24.5358 93.6089 25.8517 93.6089 27.3189C93.6089 28.7861 93.411 30.1136 93.015 31.3014C92.6191 32.4658 92.0485 33.4672 91.3033 34.3057C90.5813 35.1441 89.6963 35.7845 88.6483 36.227C87.6003 36.6695 86.4242 36.8908 85.12 36.8908ZM85.12 33.2926C86.3078 33.2926 87.2393 32.9316 87.9147 32.2096C88.5901 31.4877 88.9278 30.428 88.9278 29.0307V25.6421C88.9278 24.268 88.5901 23.22 87.9147 22.498C87.2393 21.7761 86.3078 21.4151 85.12 21.4151C83.9555 21.4151 83.0356 21.7761 82.3602 22.498C81.6848 23.22 81.3471 24.268 81.3471 25.6421V29.0307C81.3471 30.428 81.6848 31.4877 82.3602 32.2096C83.0356 32.9316 83.9555 33.2926 85.12 33.2926Z" fill="white"/>
<path d="M99.0927 15.5812C98.1611 15.5812 97.4857 15.3716 97.0665 14.9524C96.6706 14.5332 96.4727 13.9976 96.4727 13.3455V12.6468C96.4727 11.9947 96.6706 11.459 97.0665 11.0398C97.4857 10.6206 98.1611 10.411 99.0927 10.411C100.001 10.411 100.665 10.6206 101.084 11.0398C101.503 11.459 101.713 11.9947 101.713 12.6468V13.3455C101.713 13.9976 101.503 14.5332 101.084 14.9524C100.665 15.3716 100.001 15.5812 99.0927 15.5812ZM96.8569 18.2362H101.328V36.4716H96.8569V18.2362Z" fill="white"/>
<path d="M105.8 36.4716V18.2361H110.271V21.2753H110.446C110.819 20.2972 111.401 19.4821 112.193 18.83C113.008 18.1546 114.126 17.8169 115.546 17.8169C117.433 17.8169 118.877 18.4341 119.878 19.6684C120.88 20.9027 121.38 22.6611 121.38 24.9434V36.4716H116.909V25.3975C116.909 24.0933 116.676 23.1152 116.21 22.4631C115.744 21.811 114.976 21.4849 113.904 21.4849C113.439 21.4849 112.985 21.5548 112.542 21.6945C112.123 21.811 111.739 21.9973 111.389 22.2535C111.063 22.4864 110.795 22.7891 110.586 23.1618C110.376 23.5111 110.271 23.9303 110.271 24.4194V36.4716H105.8Z" fill="white"/>
<path d="M131.615 36.8908C129.868 36.8908 128.401 36.5996 127.213 36.0174C126.026 35.4119 124.978 34.5851 124.069 33.5371L126.794 30.8821C127.47 31.6507 128.203 32.2562 128.995 32.6987C129.81 33.1412 130.742 33.3624 131.79 33.3624C132.861 33.3624 133.63 33.1761 134.095 32.8035C134.584 32.4309 134.829 31.9185 134.829 31.2664C134.829 30.7308 134.654 30.3116 134.305 30.0088C133.979 29.6827 133.408 29.4615 132.593 29.3451L130.777 29.1005C128.797 28.8443 127.283 28.2854 126.235 27.4237C125.211 26.5387 124.698 25.2578 124.698 23.581C124.698 22.696 124.861 21.9042 125.187 21.2055C125.513 20.4835 125.979 19.878 126.585 19.3889C127.19 18.8766 127.912 18.4923 128.75 18.2361C129.612 17.9566 130.567 17.8169 131.615 17.8169C132.5 17.8169 133.28 17.8868 133.956 18.0265C134.654 18.1429 135.283 18.3293 135.842 18.5854C136.401 18.8183 136.913 19.1211 137.379 19.4937C137.845 19.8431 138.299 20.239 138.742 20.6815L136.121 23.3015C135.586 22.7426 134.945 22.2768 134.2 21.9042C133.455 21.5315 132.64 21.3452 131.755 21.3452C130.777 21.3452 130.066 21.5199 129.624 21.8692C129.205 22.2186 128.995 22.6727 128.995 23.2316C128.995 23.8372 129.17 24.3029 129.519 24.629C129.892 24.9318 130.509 25.153 131.371 25.2927L133.222 25.5373C137.158 26.0962 139.126 27.8895 139.126 30.9171C139.126 31.8021 138.939 32.6172 138.567 33.3624C138.218 34.0844 137.717 34.7132 137.065 35.2489C136.413 35.7612 135.621 36.1688 134.689 36.4716C133.781 36.751 132.756 36.8908 131.615 36.8908Z" fill="white"/>
<path d="M153.275 33.4326H153.1C152.937 33.8984 152.716 34.3409 152.437 34.7601C152.18 35.156 151.843 35.517 151.423 35.843C151.028 36.1691 150.538 36.4253 149.956 36.6116C149.397 36.7979 148.745 36.8911 148 36.8911C146.114 36.8911 144.67 36.2739 143.668 35.0396C142.667 33.8052 142.166 32.0469 142.166 29.7646V18.2364H146.638V29.3104C146.638 30.568 146.882 31.5345 147.371 32.2099C147.86 32.862 148.64 33.1881 149.712 33.1881C150.154 33.1881 150.585 33.1298 151.004 33.0134C151.447 32.897 151.831 32.7223 152.157 32.4894C152.483 32.2332 152.751 31.9305 152.961 31.5811C153.17 31.2085 153.275 30.7776 153.275 30.2886V18.2364H157.747V36.4718H153.275V33.4326Z" fill="white"/>
<path d="M166.689 36.4716C165.152 36.4716 164.023 36.0873 163.301 35.3188C162.579 34.5502 162.218 33.4673 162.218 32.0699V10.6205H166.689V32.9083H169.1V36.4716H166.689Z" fill="white"/>
<path d="M177.309 36.472C175.772 36.472 174.596 36.076 173.781 35.2842C172.989 34.4691 172.593 33.3163 172.593 31.8258V21.7998H169.903V18.2365H171.301C171.976 18.2365 172.43 18.0851 172.663 17.7824C172.919 17.4563 173.047 16.9789 173.047 16.3501V13.241H177.065V18.2365H180.803V21.7998H177.065V32.9087H180.523V36.472H177.309Z" fill="white"/>
<path d="M15.3727 0.000244141H47.1967V31.8242C47.1967 35.9013 45.577 39.8114 42.6941 42.6943C39.8111 45.5773 35.901 47.1969 31.8239 47.1969H0V15.373C0 11.2959 1.61962 7.38576 4.50257 4.50282C7.38552 1.61987 11.2956 0.000244141 15.3727 0.000244141Z" fill="url(#paint0_linear_450_26737)"/>
<path d="M37.2883 18.5726L34.133 20.0184L31.9178 21.0336L31.8191 21.0781L28.7733 22.4538C28.7733 22.4419 28.7684 22.4301 28.7645 22.4182C28.5847 21.6688 28.238 20.9696 27.7502 20.3729L27.4688 19.7577L30.5075 18.3652L32.7553 17.3351L35.9383 15.8765C36.1147 16.1517 36.2793 16.4331 36.4321 16.7208L37.2636 18.535L37.2883 18.5726Z" fill="white"/>
<path d="M37.8031 26.9088C37.5692 27.904 37.2298 28.8714 36.7908 29.7946L26.9219 28.1097L27.0147 27.5656C27.7346 26.9808 28.281 26.2104 28.5948 25.3376L37.8031 26.9088Z" fill="white"/>
<path d="M20.0143 28.4785L16.0274 31.302L13.1772 33.3206C12.4967 32.5772 11.896 31.7646 11.3848 30.8961L14.2201 28.8873L16.2121 27.4761L18.2722 26.0174L20.0143 28.4785Z" fill="white"/>
<path d="M20.3942 16.0772L19.1617 18.8286L17.3564 18.0198L15.0701 16.9957L11.8516 15.5528C12.4382 14.6828 13.1184 13.8797 13.8801 13.1579L17.3919 14.7311L20.0772 15.936L20.3942 16.0772Z" fill="white"/>
<path d="M34.3866 26.3256C33.9046 28.1974 32.9352 29.9081 31.5773 31.2836C30.2193 32.6591 28.5211 33.6503 26.6556 34.1563C24.7901 34.6622 22.8238 34.6649 20.9569 34.1641C19.09 33.6632 17.3892 32.6767 16.0274 31.305C15.3169 30.5873 14.7088 29.7751 14.2201 28.8913L11.3848 30.9001C12.8399 33.3799 15.0046 35.3669 17.5998 36.6049C20.1949 37.8429 23.1014 38.275 25.9444 37.8455C28.7874 37.416 31.4365 36.1446 33.5501 34.1953C35.6638 32.2461 37.1449 29.7083 37.8026 26.9092L34.3866 26.3256Z" fill="white"/>
<path d="M17.3918 14.7314C18.7753 13.7343 20.3725 13.0743 22.0562 12.8038C23.7399 12.5334 25.4635 12.6601 27.0895 13.1738C28.7156 13.6875 30.1991 14.574 31.4219 15.7626C32.6447 16.9512 33.5728 18.409 34.1324 20.0199L37.2877 18.574C37.2818 18.5592 37.2769 18.5444 37.2709 18.5306L36.4394 16.7164C36.2833 16.4293 36.1188 16.1479 35.9456 15.872C34.6617 13.8564 32.8964 12.1919 30.8089 11.0285C28.7214 9.8651 26.3772 9.23939 23.9876 9.20774C21.5981 9.1761 19.2381 9.73952 17.1205 10.8472C15.003 11.9549 13.1943 13.5721 11.8574 15.553L15.076 16.9959C15.7313 16.1303 16.5118 15.3671 17.3918 14.7314Z" fill="white"/>
<path d="M13.0551 21.5082C13.1758 20.8877 13.3496 20.2788 13.5746 19.688L10.4143 18.2719C9.17046 21.4054 9.06215 24.8755 10.1082 28.0805L13.1065 25.9572C12.7841 24.4935 12.7666 22.979 13.0551 21.5082Z" fill="white"/>
<path d="M33.9747 19.5971L31.799 20.6904L31.7042 20.7388L28.7197 22.2369" fill="white"/>
<path d="M18.1271 26.094L16.2003 27.4589C15.7126 26.5039 15.411 25.465 15.3115 24.3973L16.386 23.6369L18.1271 26.094Z" fill="white"/>
<path d="M19.5764 19.0727L18.3439 21.8241L15.79 20.6766C16.1374 19.7184 16.6553 18.8311 17.3188 18.0575L19.5764 19.0727Z" fill="white"/>
<path d="M31.9893 25.9166C31.524 27.5632 30.5735 29.0314 29.2616 30.1299C27.9497 31.2285 26.3373 31.9063 24.6346 32.0752C22.9319 32.244 21.2178 31.896 19.7157 31.0765C18.2136 30.257 16.9932 29.004 16.2136 27.4809C16.209 27.4745 16.2054 27.4675 16.2028 27.4602C15.4392 25.9586 15.1379 24.2643 15.3371 22.5915C15.5363 20.9188 16.2269 19.3426 17.3217 18.0623L17.3582 18.0208C18.3509 16.8768 19.6306 16.0181 21.0655 15.5331C22.5004 15.0481 24.0386 14.9544 25.5218 15.2615C27.005 15.5686 28.3795 16.2656 29.5038 17.2805C30.628 18.2955 31.4615 19.5918 31.9182 21.0359L31.8194 21.0794L28.7737 22.4541C28.7737 22.4422 28.7688 22.4304 28.7648 22.4185C28.4809 21.224 27.7766 20.1716 26.7806 19.4536C25.7846 18.7356 24.5635 18.3999 23.3405 18.5081C22.1175 18.6162 20.9742 19.1608 20.1196 20.0424C19.2651 20.924 18.7563 22.0837 18.6863 23.3095C18.6163 24.5353 18.9898 25.7454 19.7385 26.7185C20.4871 27.6916 21.561 28.3628 22.7638 28.6095C23.9665 28.8561 25.2179 28.6616 26.2891 28.0616C27.3603 27.4617 28.1799 26.4962 28.5979 25.3418L31.9893 25.9166Z" fill="white"/>
</g>
<defs>
<linearGradient id="paint0_linear_450_26737" x1="0.754514" y1="1.17745" x2="69.838" y2="68.982" gradientUnits="userSpaceOnUse">
<stop stop-color="#3B916F"/>
<stop offset="1" stop-color="#096AA5"/>
</linearGradient>
<clipPath id="clip0_450_26737">
<rect width="182.968" height="47.1967" fill="white"/>
</clipPath>
</defs>
</svg>
