<svg width="90" height="90" viewBox="0 0 90 90" fill="none" xmlns="http://www.w3.org/2000/svg">
<rect x="22.9225" y="0.698914" width="70" height="70" rx="23" transform="rotate(18.5106 22.9225 0.698914)" fill="#5860FF"/>
<path d="M22.9964 46.7717C24.7755 41.4578 25.665 38.8009 27.4872 36.9798C28.3061 36.1613 29.2499 35.4781 30.2832 34.9556C32.5821 33.7931 35.3839 33.7775 40.9876 33.7465L52.0185 33.6852C60.0476 33.6407 64.0622 33.6184 66.2904 35.8911C66.814 36.4251 67.255 37.0342 67.5988 37.6983C69.0621 40.5247 67.7876 44.3316 65.2384 51.9454C63.4734 57.2173 62.5909 59.8533 60.6694 61.5523C60.2036 61.9642 59.6987 62.3297 59.162 62.6436C56.948 63.9386 54.1683 63.954 48.6088 63.9849L35.5109 64.0575C28.4417 64.0968 24.9071 64.1164 22.7869 62.3238C20.0702 60.0269 19.6817 56.6723 20.5172 54.1766C21.0815 52.4912 22.1211 49.3861 22.9964 46.7717Z" fill="url(#paint0_linear_15_6)"/>
<path fill-rule="evenodd" clip-rule="evenodd" d="M27.1926 34.2385C28.6175 29.9824 29.7857 26.4931 31.1013 24.9139C32.2632 23.5192 33.7539 22.4356 35.4391 21.7609C37.3472 20.9968 39.5912 20.9758 44.0793 20.9339L45.6263 20.9194C50.838 20.8706 53.4439 20.8463 55.1978 21.8367C57.0958 22.9086 58.4353 24.7515 58.8692 26.8877C59.2701 28.8616 58.0087 32.6292 56.354 37.5715C55.0484 41.4711 54.3956 43.4209 53.237 44.9025C51.9775 46.5132 50.2916 47.7386 48.3709 48.4396C46.604 49.0844 44.548 49.1036 40.4358 49.142C40.4358 49.142 33.3621 49.1855 28.9453 49.2434C24.5284 49.3013 21.4613 51.3568 20.4961 54.2398L27.1926 34.2385Z" fill="white"/>
<defs>
<linearGradient id="paint0_linear_15_6" x1="60.6512" y1="61.0174" x2="31.1467" y2="27.7927" gradientUnits="userSpaceOnUse">
<stop stop-color="white"/>
<stop offset="1" stop-color="white" stop-opacity="0.12"/>
</linearGradient>
</defs>
</svg>
