<?xml version="1.0" encoding="UTF-8"?>
<svg version="1.1" xmlns="http://www.w3.org/2000/svg" width="67" height="67">
<path d="M0 0 C0.99 0 1.98 0 3 0 C3.20818303 5.93321622 2.73620116 8.92329596 1 15 C8.26 15 15.52 15 23 15 C23.20625 17.990625 23.4125 20.98125 23.625 24.0625 C23.69541504 24.99070557 23.76583008 25.91891113 23.83837891 26.87524414 C24.15323399 32.0814786 23.74954443 36.07857157 22 41 C14.93391809 41.13794954 8.02639415 40.74805717 1 40 C1.144375 40.66386719 1.28875 41.32773437 1.4375 42.01171875 C1.623125 42.89472656 1.80875 43.77773438 2 44.6875 C2.185625 45.55761719 2.37125 46.42773438 2.5625 47.32421875 C2.98972047 49.93712964 3.07616201 52.35813038 3 55 C-2.40400324 54.64733952 -5.49842577 51.48739185 -9.4375 48.125 C-10.85300341 46.94001532 -12.26969468 45.75644828 -13.6875 44.57421875 C-14.40164062 43.97657715 -15.11578125 43.37893555 -15.8515625 42.76318359 C-17.91108169 41.07297364 -20.00280255 39.44255465 -22.125 37.83203125 C-22.76767822 37.3426709 -23.41035645 36.85331055 -24.07250977 36.34912109 C-25.29132446 35.42659373 -26.515589 34.51121107 -27.74584961 33.60400391 C-31.80819451 30.50380908 -31.80819451 30.50380908 -32.87890625 27.69140625 C-32.91886719 27.13324219 -32.95882812 26.57507813 -33 26 C-24.56631398 19.3305716 -16.0815471 12.73571727 -7.51196289 6.24145508 C-6.82223389 5.71704834 -6.13250488 5.1926416 -5.421875 4.65234375 C-4.80924805 4.18820068 -4.19662109 3.72405762 -3.56542969 3.24584961 C-1.8669318 1.94223203 -1.8669318 1.94223203 0 0 Z " fill="#F08A37" transform="translate(37,7)"/>
<path d="M0 0 C-1.13571161 6.92300798 -2.31728764 13.83132985 -3.6328125 20.72265625 C-4.21014841 24.30336726 -3.81291748 27.26869913 -3.08984375 30.78125 C-2.90486328 31.70550781 -2.71988281 32.62976562 -2.52929688 33.58203125 C-2.13461057 35.5281083 -1.73616863 37.47342742 -1.33398438 39.41796875 C-1.15029297 40.34222656 -0.96660156 41.26648437 -0.77734375 42.21875 C-0.60452881 43.06373047 -0.43171387 43.90871094 -0.25366211 44.77929688 C0 47 0 47 -1 50 C-1.51046875 49.59910156 -2.0209375 49.19820312 -2.546875 48.78515625 C-6.97244536 45.32473688 -11.43269299 41.91925141 -15.9375 38.5625 C-21.38763969 34.49063697 -26.71880075 30.28805338 -32 26 C-30.60147345 22.70040731 -29.063899 20.98153872 -26.21875 18.828125 C-25.46335937 18.24949707 -24.70796875 17.67086914 -23.9296875 17.07470703 C-23.12789062 16.47255371 -22.32609375 15.87040039 -21.5 15.25 C-19.86408201 14.00326171 -18.22866218 12.75586947 -16.59375 11.5078125 C-15.80355469 10.90743164 -15.01335938 10.30705078 -14.19921875 9.68847656 C-10.64722968 6.96139437 -7.19595269 4.11747463 -3.75 1.2578125 C-2 0 -2 0 0 0 Z " fill="#F18B36" transform="translate(38,10)"/>
<path d="M0 0 C0.99 0 1.98 0 3 0 C3.20818303 5.93321622 2.73620116 8.92329596 1 15 C8.26 15 15.52 15 23 15 C23.20625 17.990625 23.4125 20.98125 23.625 24.0625 C23.69541504 24.99070557 23.76583008 25.91891113 23.83837891 26.87524414 C24.15323399 32.0814786 23.74954443 36.07857157 22 41 C14.93391809 41.13794954 8.02639415 40.74805717 1 40 C1.144375 40.66386719 1.28875 41.32773437 1.4375 42.01171875 C1.623125 42.89472656 1.80875 43.77773438 2 44.6875 C2.185625 45.55761719 2.37125 46.42773438 2.5625 47.32421875 C2.98972047 49.93712964 3.07616201 52.35813038 3 55 C-2.40400324 54.64733952 -5.49842577 51.48739185 -9.4375 48.125 C-10.85300341 46.94001532 -12.26969468 45.75644828 -13.6875 44.57421875 C-14.40164062 43.97657715 -15.11578125 43.37893555 -15.8515625 42.76318359 C-17.91108169 41.07297364 -20.00280255 39.44255465 -22.125 37.83203125 C-22.76767822 37.3426709 -23.41035645 36.85331055 -24.07250977 36.34912109 C-25.29132446 35.42659373 -26.515589 34.51121107 -27.74584961 33.60400391 C-31.80819451 30.50380908 -31.80819451 30.50380908 -32.87890625 27.69140625 C-32.91886719 27.13324219 -32.95882812 26.57507813 -33 26 C-24.56631398 19.3305716 -16.0815471 12.73571727 -7.51196289 6.24145508 C-6.82223389 5.71704834 -6.13250488 5.1926416 -5.421875 4.65234375 C-4.80924805 4.18820068 -4.19662109 3.72405762 -3.56542969 3.24584961 C-1.8669318 1.94223203 -1.8669318 1.94223203 0 0 Z M-6.125 7.25 C-11.78127544 12.10253552 -17.67902299 16.55631502 -23.74267578 20.88769531 C-24.72469971 21.6045752 -24.72469971 21.6045752 -25.7265625 22.3359375 C-26.60175537 22.96314697 -26.60175537 22.96314697 -27.49462891 23.60302734 C-29.24595465 25.228244 -30.05530499 26.8223881 -31 29 C-20.83211172 37.21693906 -10.48285197 45.18924755 0 53 C1.09327392 49.72017823 0.89955218 48.52843973 0.22265625 45.21875 C0.03896484 44.29449219 -0.14472656 43.37023438 -0.33398438 42.41796875 C-0.53314453 41.45503906 -0.73230469 40.49210937 -0.9375 39.5 C-1.3240107 37.59423439 -1.70822747 35.68800171 -2.08984375 33.78125 C-2.26378662 32.93626953 -2.43772949 32.09128906 -2.61694336 31.22070312 C-3.21746911 27.73926132 -2.83766335 24.85280206 -2.125 21.4375 C-1.94453125 20.55835937 -1.7640625 19.67921875 -1.578125 18.7734375 C-1 16 -1 16 -0.421875 13.2265625 C-0.24140625 12.34742188 -0.0609375 11.46828125 0.125 10.5625 C0.29257812 9.75941406 0.46015625 8.95632812 0.6328125 8.12890625 C1.08498373 5.86733181 1.08498373 5.86733181 1 3 C-2.21873568 3 -3.73647527 5.18037912 -6.125 7.25 Z M0 17 C-1.16581918 19.33163836 -1.12905609 20.72153482 -1.1328125 23.31640625 C-1.13410156 24.16267578 -1.13539062 25.00894531 -1.13671875 25.88085938 C-1.13285156 26.76580078 -1.12898438 27.65074219 -1.125 28.5625 C-1.12886719 29.45130859 -1.13273437 30.34011719 -1.13671875 31.25585938 C-1.13542969 32.10083984 -1.13414063 32.94582031 -1.1328125 33.81640625 C-1.13168457 34.59443604 -1.13055664 35.37246582 -1.12939453 36.17407227 C-1.19906601 38.01938536 -1.19906601 38.01938536 0 39 C1.56172745 39.08685603 3.12729344 39.10702219 4.69140625 39.09765625 C5.54162354 39.09515869 6.39184082 39.09266113 7.26782227 39.09008789 C8.35506592 39.08098389 9.44230957 39.07187988 10.5625 39.0625 C15.7290625 39.0315625 15.7290625 39.0315625 21 39 C21 31.74 21 24.48 21 17 C14.07 17 7.14 17 0 17 Z " fill="#221820" transform="translate(37,7)"/>
<path d="M0 0 C-1.26004439 7.68090888 -2.58854474 15.34550384 -4 23 C-7.45831586 23.02894547 -10.91660072 23.04678 -14.375 23.0625 C-15.35984375 23.07087891 -16.3446875 23.07925781 -17.359375 23.08789062 C-18.77089844 23.09272461 -18.77089844 23.09272461 -20.2109375 23.09765625 C-21.51490479 23.10551147 -21.51490479 23.10551147 -22.84521484 23.11352539 C-25 23 -25 23 -27 22 C-25.61380229 18.73750355 -24.13297533 17.043688 -21.296875 14.94140625 C-20.56339844 14.39033203 -19.82992188 13.83925781 -19.07421875 13.27148438 C-18.30722656 12.70751953 -17.54023438 12.14355469 -16.75 11.5625 C-15.24388478 10.4400179 -13.73866073 9.31633895 -12.234375 8.19140625 C-11.1525293 7.38727295 -11.1525293 7.38727295 -10.04882812 6.56689453 C-8.1690514 5.12928645 -6.36972909 3.6349118 -4.578125 2.08984375 C-2 0 -2 0 0 0 Z " fill="#F46A89" transform="translate(38,10)"/>
<path d="M0 0 C6.93 0 13.86 0 21 0 C21 2.97 21 5.94 21 9 C14.07 9 7.14 9 0 9 C0 12.96 0 16.92 0 21 C-0.33 21 -0.66 21 -1 21 C-1.02895976 17.87501937 -1.04678483 14.7500731 -1.0625 11.625 C-1.07087891 10.73554687 -1.07925781 9.84609375 -1.08789062 8.9296875 C-1.09111328 8.07890625 -1.09433594 7.228125 -1.09765625 6.3515625 C-1.10289307 5.56604004 -1.10812988 4.78051758 -1.11352539 3.97119141 C-1 2 -1 2 0 0 Z " fill="#F37D5B" transform="translate(37,24)"/>
<path d="M0 0 C1.33740805 0.31658898 2.6700124 0.65355828 4 1 C5.58567839 1.1421701 7.17518632 1.24504041 8.765625 1.31640625 C9.65507812 1.35830078 10.54453125 1.40019531 11.4609375 1.44335938 C12.38132812 1.48267578 13.30171875 1.52199219 14.25 1.5625 C15.18585937 1.60568359 16.12171875 1.64886719 17.0859375 1.69335938 C19.39048641 1.7991805 21.69513839 1.90126557 24 2 C25.57822244 7.2102016 26.73828397 12.39137158 27.6875 17.75 C27.82994141 18.50410156 27.97238281 19.25820313 28.11914062 20.03515625 C28.73115107 23.46363267 29.11849717 25.6445085 28 29 C27.01 28.01 26.02 27.02 25 26 C25.66 26 26.32 26 27 26 C27 25.01 27 24.02 27 23 C26.01 23 25.02 23 24 23 C23.49363393 21.25183142 22.99515381 19.50137737 22.5 17.75 C22.2215625 16.77546875 21.943125 15.8009375 21.65625 14.796875 C21 12 21 12 21 8 C20.34 8 19.68 8 19 8 C18.67 7.34 18.34 6.68 18 6 C16.16471137 5.53272148 16.16471137 5.53272148 13.96484375 5.3671875 C13.15595703 5.28339844 12.34707031 5.19960938 11.51367188 5.11328125 C10.2384668 4.99533203 10.2384668 4.99533203 8.9375 4.875 C8.08349609 4.78863281 7.22949219 4.70226563 6.34960938 4.61328125 C4.23389367 4.40052772 2.11703476 4.19920047 0 4 C0 4.99 0 5.98 0 7 C-0.99 6.34 -1.98 5.68 -3 5 C-1.125 1.125 -1.125 1.125 0 0 Z " fill="#F88946" transform="translate(9,31)"/>
<path d="M0 0 C-1.12276571 7.05909078 -2.37563401 14.03843148 -4 21 C-5.65 21 -7.3 21 -9 21 C-9 20.34 -9 19.68 -9 19 C-9.66 19 -10.32 19 -11 19 C-11.33 19.66 -11.66 20.32 -12 21 C-12.99 20.67 -13.98 20.34 -15 20 C-13.97729068 16.74592488 -13.0370722 15.03612163 -10.5625 12.625 C-7.63816138 9.62933605 -6.56688053 6.84597947 -5 3 C-2.58064516 0 -2.58064516 0 0 0 Z " fill="#EE56B1" transform="translate(38,10)"/>
<path d="M0 0 C0.66 0.33 1.32 0.66 2 1 C1.67 1.66 1.34 2.32 1 3 C8.26 3 15.52 3 23 3 C22.67 10.59 22.34 18.18 22 26 C21.67 26 21.34 26 21 26 C21 19.07 21 12.14 21 5 C14.07 5 7.14 5 0 5 C-0.33 10.28 -0.66 15.56 -1 21 C-1.66 21 -2.32 21 -3 21 C-3.33 19.68 -3.66 18.36 -4 17 C-10.93 16.505 -10.93 16.505 -18 16 C-18 15.67 -18 15.34 -18 15 C-13.38 14.67 -8.76 14.34 -4 14 C-3.71125 12.246875 -3.4225 10.49375 -3.125 8.6875 C-2.52004559 5.01456251 -2.09715785 3.14573677 0 0 Z " fill="#1E161F" transform="translate(37,19)"/>
<path d="M0 0 C2.49153377 3.73730065 2.41025455 6.67654816 2 11 C1.47406064 13.4120667 0.78264271 15.65207188 0 18 C-7.06608191 18.13794954 -13.97360585 17.74805717 -21 17 C-20.855625 17.66386719 -20.71125 18.32773437 -20.5625 19.01171875 C-20.2840625 20.33623047 -20.2840625 20.33623047 -20 21.6875 C-19.814375 22.55761719 -19.62875 23.42773438 -19.4375 24.32421875 C-19.01027953 26.93712964 -18.92383799 29.35813038 -19 32 C-23.50343911 31.4887988 -25.87525426 29.82478642 -29.3125 26.9375 C-30.19550781 26.20402344 -31.07851563 25.47054687 -31.98828125 24.71484375 C-32.65214844 24.14894531 -33.31601562 23.58304688 -34 23 C-33.01 22.67 -32.02 22.34 -31 22 C-28.73828125 23.43359375 -28.73828125 23.43359375 -26.3125 25.4375 C-25.50425781 26.09621094 -24.69601563 26.75492188 -23.86328125 27.43359375 C-23.24839844 27.95050781 -22.63351563 28.46742187 -22 29 C-22.144375 28.29875 -22.28875 27.5975 -22.4375 26.875 C-23.56097355 21.13280185 -24.2206715 15.84779485 -24 10 C-23.67 10 -23.34 10 -23 10 C-22.67 11.65 -22.34 13.3 -22 15 C-15.07 15 -8.14 15 -1 15 C-0.67 10.05 -0.34 5.1 0 0 Z " fill="#171419" transform="translate(59,30)"/>
<path d="M0 0 C6.93 0 13.86 0 21 0 C21 0.99 21 1.98 21 3 C10.605 3.495 10.605 3.495 0 4 C-0.33 4.66 -0.66 5.32 -1 6 C-0.67 4.02 -0.34 2.04 0 0 Z " fill="#DF48BB" transform="translate(37,24)"/>
<path d="M0 0 C1.20366211 0.00483398 1.20366211 0.00483398 2.43164062 0.00976562 C3.68170898 0.02233398 3.68170898 0.02233398 4.95703125 0.03515625 C5.80201172 0.03966797 6.64699219 0.04417969 7.51757812 0.04882812 C9.6015928 0.06060222 11.68557102 0.07853735 13.76953125 0.09765625 C13.43953125 1.41765625 13.10953125 2.73765625 12.76953125 4.09765625 C11.92189209 4.08980103 11.92189209 4.08980103 11.05712891 4.08178711 C8.50294095 4.06103203 5.94877072 4.04800085 3.39453125 4.03515625 C2.50507812 4.02677734 1.615625 4.01839844 0.69921875 4.00976562 C-0.1515625 4.00654297 -1.00234375 4.00332031 -1.87890625 4 C-2.66442871 3.99476318 -3.44995117 3.98952637 -4.25927734 3.98413086 C-6.30819543 3.97191672 -6.30819543 3.97191672 -8.23046875 5.09765625 C-7.91796875 3.16015625 -7.91796875 3.16015625 -7.23046875 1.09765625 C-4.46481493 0.17577164 -2.84763173 -0.02019597 0 0 Z " fill="#F76891" transform="translate(44.23046875,26.90234375)"/>
<path d="M0 0 C1.33740805 0.31658898 2.6700124 0.65355828 4 1 C5.58567839 1.1421701 7.17518632 1.24504041 8.765625 1.31640625 C9.65507812 1.35830078 10.54453125 1.40019531 11.4609375 1.44335938 C12.38132812 1.48267578 13.30171875 1.52199219 14.25 1.5625 C15.18585937 1.60568359 16.12171875 1.64886719 17.0859375 1.69335938 C19.39048641 1.7991805 21.69513839 1.90126557 24 2 C24 2.99 24 3.98 24 5 C15.92138585 5.09579384 8.01659634 5.12513633 0 4 C0 4.99 0 5.98 0 7 C-0.99 6.34 -1.98 5.68 -3 5 C-1.125 1.125 -1.125 1.125 0 0 Z " fill="#DB6D5E" transform="translate(9,31)"/>
<path d="M0 0 C0.33 0 0.66 0 1 0 C0.57910004 5.60461531 0.08386889 10.72086547 -2 16 C-3.65 16 -5.3 16 -7 16 C-5.38354187 9.99601267 -3.33948252 5.22701612 0 0 Z " fill="#F74CD5" transform="translate(36,12)"/>
<path d="M0 0 C0.66 0.33 1.32 0.66 2 1 C1.43224464 2.29858939 0.84508337 3.58870441 0.25 4.875 C-0.07484375 5.59429688 -0.3996875 6.31359375 -0.734375 7.0546875 C-2.23081412 9.35476985 -3.5681622 9.84388039 -6 11 C-6.81171228 13.55519921 -6.81171228 13.55519921 -7 16 C-5.35 15.67 -3.7 15.34 -2 15 C-2 15.66 -2 16.32 -2 17 C-0.35 17 1.3 17 3 17 C3 17.33 3 17.66 3 18 C-1.29 18 -5.58 18 -10 18 C-10.33 17.01 -10.66 16.02 -11 15 C-10.34 14.01 -9.68 13.02 -9 12 C-8.34 12 -7.68 12 -7 12 C-7 11.34 -7 10.68 -7 10 C-6.5875 9.608125 -6.175 9.21625 -5.75 8.8125 C-3.21580866 6.18780183 -1.74974638 3.19781235 0 0 Z " fill="#F762A1" transform="translate(31,14)"/>
<path d="M0 0 C2.49153377 3.73730065 2.41025455 6.67654816 2 11 C1.47406064 13.4120667 0.78264271 15.65207188 0 18 C-6.43255401 18.12086218 -12.61773055 17.82351864 -19 17 C-19 16.67 -19 16.34 -19 16 C-13.06 15.67 -7.12 15.34 -1 15 C-0.67 10.05 -0.34 5.1 0 0 Z " fill="#0E0E16" transform="translate(59,30)"/>
<path d="M0 0 C2.24959782 4.49919565 2.07922275 6.34439425 1.625 11.25 C1.45871094 13.14492188 1.45871094 13.14492188 1.2890625 15.078125 C1.19367187 16.04234375 1.09828125 17.0065625 1 18 C0.34 18 -0.32 18 -1 18 C-1.33 16.68 -1.66 15.36 -2 14 C-8.93 13.505 -8.93 13.505 -16 13 C-16 12.67 -16 12.34 -16 12 C-11.38 11.67 -6.76 11.34 -2 11 C-1.34 7.37 -0.68 3.74 0 0 Z " fill="#5E2E40" transform="translate(35,22)"/>
<path d="M0 0 C0.33 0 0.66 0 1 0 C1.52992381 2.76937583 2.0492458 5.54003079 2.5625 8.3125 C2.71396484 9.09818359 2.86542969 9.88386719 3.02148438 10.69335938 C3.16005859 11.45068359 3.29863281 12.20800781 3.44140625 12.98828125 C3.57232666 13.68477783 3.70324707 14.38127441 3.83813477 15.09887695 C4 17 4 17 3 20 C2.01 19.01 1.02 18.02 0 17 C0.66 17 1.32 17 2 17 C2 16.01 2 15.02 2 14 C1.01 14 0.02 14 -1 14 C-1.027193 12.41676312 -1.04648306 10.83338938 -1.0625 9.25 C-1.07410156 8.36828125 -1.08570313 7.4865625 -1.09765625 6.578125 C-1.00826198 4.2181162 -0.66912821 2.25501476 0 0 Z " fill="#D57247" transform="translate(34,40)"/>
<path d="M0 0 C0 3.59857954 -0.95830515 5.09451118 -3 8 C-3.66 8 -4.32 8 -5 8 C-5 8.66 -5 9.32 -5 10 C-7.31 10 -9.62 10 -12 10 C-8.29909479 6.0747975 -4.45040344 3.05419844 0 0 Z " fill="#ED6B7C" transform="translate(29,16)"/>
<path d="M0 0 C0.33 0 0.66 0 1 0 C1.1546875 1.175625 1.1546875 1.175625 1.3125 2.375 C1.77595022 5.33045181 1.77595022 5.33045181 5 7 C4.34 7 3.68 7 3 7 C3.309375 8.918125 3.309375 8.918125 3.625 10.875 C3.9765625 13.0546875 3.9765625 13.0546875 4 15 C3.34 15.66 2.68 16.32 2 17 C0.4943096 11.19233704 -0.21824777 6.0018137 0 0 Z " fill="#251B21" transform="translate(35,40)"/>
<path d="M0 0 C2.8712936 0.25568326 5.70565708 0.56806088 8.5625 0.9375 C9.36880859 1.03740234 10.17511719 1.13730469 11.00585938 1.24023438 C13.00452132 1.48858882 15.00234487 1.7436731 17 2 C17 2.33 17 2.66 17 3 C9.08 3.495 9.08 3.495 1 4 C1 3.34 1 2.68 1 2 C0.34 1.67 -0.32 1.34 -1 1 C-0.67 0.67 -0.34 0.34 0 0 Z " fill="#F68749" transform="translate(9,34)"/>
<path d="M0 0 C0.33 0.66 0.66 1.32 1 2 C0.67 2.66 0.34 3.32 0 4 C1.65 4 3.3 4 5 4 C5.33 3.34 5.66 2.68 6 2 C5.67 3.65 5.34 5.3 5 7 C3.35 7 1.7 7 0 7 C0 6.34 0 5.68 0 5 C-0.99 4.67 -1.98 4.34 -3 4 C-2.01 2.68 -1.02 1.36 0 0 Z " fill="#F353BE" transform="translate(29,24)"/>
<path d="M0 0 C0.66 0.33 1.32 0.66 2 1 C1.43224464 2.29858939 0.84508337 3.58870441 0.25 4.875 C-0.07484375 5.59429688 -0.3996875 6.31359375 -0.734375 7.0546875 C-2.23077797 9.35471429 -3.54108742 9.89049067 -6 11 C-6.33 11.66 -6.66 12.32 -7 13 C-7 10 -7 10 -5.75 8.75 C-5.1725 8.1725 -4.595 7.595 -4 7 C-2.57172807 4.71169336 -1.29579662 2.36818003 0 0 Z " fill="#F16396" transform="translate(31,14)"/>
<path d="M0 0 C1.65 0 3.3 0 5 0 C5 2.64 5 5.28 5 8 C3.5 6.75 3.5 6.75 2 5 C2 3.68 2 2.36 2 1 C1.34 0.67 0.68 0.34 0 0 Z " fill="#F47D5B" transform="translate(29,36)"/>
<path d="M0 0 C0.66 0 1.32 0 2 0 C1.67 2.31 1.34 4.62 1 7 C0.34 7 -0.32 7 -1 7 C-1.33 7.66 -1.66 8.32 -2 9 C-1.125 1.125 -1.125 1.125 0 0 Z " fill="#311834" transform="translate(38,12)"/>
</svg>
