<?xml version="1.0" encoding="UTF-8"?>
<svg version="1.1" xmlns="http://www.w3.org/2000/svg" width="67" height="67">
<path d="M0 0 C5.40400324 0.35266048 8.49842577 3.51260815 12.4375 6.875 C13.85300341 8.05998468 15.26969468 9.24355172 16.6875 10.42578125 C17.40164062 11.02342285 18.11578125 11.62106445 18.8515625 12.23681641 C20.91108169 13.92702636 23.00280255 15.55744535 25.125 17.16796875 C25.76767822 17.6573291 26.41035645 18.14668945 27.07250977 18.65087891 C28.29132446 19.57340627 29.515589 20.48878893 30.74584961 21.39599609 C34.80819451 24.49619092 34.80819451 24.49619092 35.87890625 27.30859375 C35.91886719 27.86675781 35.95882812 28.42492187 36 29 C27.56631398 35.6694284 19.0815471 42.26428273 10.51196289 48.75854492 C9.82223389 49.28295166 9.13250488 49.8073584 8.421875 50.34765625 C7.50293457 51.04387085 7.50293457 51.04387085 6.56542969 51.75415039 C4.8669318 53.05776797 4.8669318 53.05776797 3 55 C2.01 55 1.02 55 0 55 C-0.20818303 49.06678378 0.26379884 46.07670404 2 40 C-5.26 40 -12.52 40 -20 40 C-20.20625 37.009375 -20.4125 34.01875 -20.625 30.9375 C-20.69541504 30.00929443 -20.76583008 29.08108887 -20.83837891 28.12475586 C-21.15323399 22.9185214 -20.74954443 18.92142843 -19 14 C-11.93391809 13.86205046 -5.02639415 14.25194283 2 15 C1.855625 14.33613281 1.71125 13.67226563 1.5625 12.98828125 C1.376875 12.10527344 1.19125 11.22226562 1 10.3125 C0.814375 9.44238281 0.62875 8.57226562 0.4375 7.67578125 C0.01027953 5.06287036 -0.07616201 2.64186962 0 0 Z " fill="#F08839" transform="translate(27,5)"/>
<path d="M0 0 C4.16249593 2.71709868 8.1325184 5.5744201 12.0625 8.625 C13.1926618 9.5000601 14.32287168 10.37505811 15.453125 11.25 C16.3203418 11.92289063 16.3203418 11.92289063 17.20507812 12.609375 C20.23439359 14.95635281 23.2739564 17.2899906 26.3125 19.625 C27.41280673 20.47129395 28.51307152 21.31764244 29.61328125 22.1640625 C30.40089844 22.76992188 31.18851563 23.37578125 32 24 C30.63718095 27.17763478 29.24470324 28.8713701 26.47265625 30.91796875 C25.41510132 31.71037964 25.41510132 31.71037964 24.33618164 32.51879883 C23.5858667 33.06947021 22.83555176 33.6201416 22.0625 34.1875 C20.51960171 35.33949812 18.97793707 36.49315033 17.4375 37.6484375 C16.68210937 38.21401367 15.92671875 38.77958984 15.1484375 39.36230469 C11.32590394 42.27611777 7.66511622 45.37485536 4.00390625 48.48828125 C2 50 2 50 0 50 C0.48085162 42.80380678 1.78200835 35.93565704 3.37890625 28.90625 C4.38941297 24.17784118 3.36297062 19.95602262 2.5625 15.25 C2.42779297 14.45078125 2.29308594 13.6515625 2.15429688 12.828125 C1.89141298 11.26877468 1.62792335 9.70952633 1.36376953 8.15039062 C0.90432057 5.43439974 0.45142813 2.71733437 0 0 Z " fill="#F48C36" transform="translate(29,7)"/>
<path d="M0 0 C5.40400324 0.35266048 8.49842577 3.51260815 12.4375 6.875 C13.85300341 8.05998468 15.26969468 9.24355172 16.6875 10.42578125 C17.40164062 11.02342285 18.11578125 11.62106445 18.8515625 12.23681641 C20.91108169 13.92702636 23.00280255 15.55744535 25.125 17.16796875 C25.76767822 17.6573291 26.41035645 18.14668945 27.07250977 18.65087891 C28.29132446 19.57340627 29.515589 20.48878893 30.74584961 21.39599609 C34.80819451 24.49619092 34.80819451 24.49619092 35.87890625 27.30859375 C35.91886719 27.86675781 35.95882812 28.42492187 36 29 C27.56631398 35.6694284 19.0815471 42.26428273 10.51196289 48.75854492 C9.82223389 49.28295166 9.13250488 49.8073584 8.421875 50.34765625 C7.50293457 51.04387085 7.50293457 51.04387085 6.56542969 51.75415039 C4.8669318 53.05776797 4.8669318 53.05776797 3 55 C2.01 55 1.02 55 0 55 C-0.20818303 49.06678378 0.26379884 46.07670404 2 40 C-5.26 40 -12.52 40 -20 40 C-20.20625 37.009375 -20.4125 34.01875 -20.625 30.9375 C-20.69541504 30.00929443 -20.76583008 29.08108887 -20.83837891 28.12475586 C-21.15323399 22.9185214 -20.74954443 18.92142843 -19 14 C-11.93391809 13.86205046 -5.02639415 14.25194283 2 15 C1.855625 14.33613281 1.71125 13.67226563 1.5625 12.98828125 C1.376875 12.10527344 1.19125 11.22226562 1 10.3125 C0.814375 9.44238281 0.62875 8.57226562 0.4375 7.67578125 C0.01027953 5.06287036 -0.07616201 2.64186962 0 0 Z M2 2 C3.09241794 9.30990305 4.2507395 16.59426985 5.6328125 23.85546875 C6.15566177 26.90913098 5.79193892 29.17615932 5.125 32.17578125 C4.94453125 33.00400391 4.7640625 33.83222656 4.578125 34.68554688 C4.19516781 36.4256733 3.80978215 38.1652672 3.421875 39.90429688 C2.5350643 43.99312765 1.72200804 47.78668437 2 52 C4.95483335 50.62678919 7.41504382 49.03258055 9.9765625 47.0234375 C10.72566895 46.43852539 11.47477539 45.85361328 12.24658203 45.25097656 C13.03145996 44.6319043 13.81633789 44.01283203 14.625 43.375 C15.42663574 42.74561523 16.22827148 42.11623047 17.05419922 41.46777344 C18.64539944 40.21733784 20.23543553 38.96541923 21.82421875 37.71191406 C23.67752838 36.25372206 25.53860659 34.8069249 27.40625 33.3671875 C28.3034375 32.66851562 29.200625 31.96984375 30.125 31.25 C30.89070313 30.65703125 31.65640625 30.0640625 32.4453125 29.453125 C32.95835938 28.97359375 33.47140625 28.4940625 34 28 C34 27.34 34 26.68 34 26 C32.29815641 24.43216747 32.29815641 24.43216747 30.078125 22.828125 C29.25505859 22.20615234 28.43199219 21.58417969 27.58398438 20.94335938 C26.73126953 20.30205078 25.87855469 19.66074219 25 19 C23.4501468 17.79026421 21.90319786 16.57679712 20.359375 15.359375 C19.21855469 14.46605469 19.21855469 14.46605469 18.0546875 13.5546875 C16.50095728 12.33803774 14.94890742 11.1192394 13.3984375 9.8984375 C9.71400286 7.01879405 6.1065149 4.26679623 2 2 Z M-18 16 C-18 23.26 -18 30.52 -18 38 C-11.07 38 -4.14 38 3 38 C4.16581918 35.66836164 4.12905609 34.27846518 4.1328125 31.68359375 C4.13410156 30.83732422 4.13539062 29.99105469 4.13671875 29.11914062 C4.13091797 27.79172852 4.13091797 27.79172852 4.125 26.4375 C4.12886719 25.54869141 4.13273437 24.65988281 4.13671875 23.74414062 C4.13542969 22.89916016 4.13414063 22.05417969 4.1328125 21.18359375 C4.13168457 20.40556396 4.13055664 19.62753418 4.12939453 18.82592773 C4.19906601 16.98061464 4.19906601 16.98061464 3 16 C1.43827255 15.91314397 -0.12729344 15.89297781 -1.69140625 15.90234375 C-2.96673218 15.90609009 -2.96673218 15.90609009 -4.26782227 15.90991211 C-5.35506592 15.91901611 -6.44230957 15.92812012 -7.5625 15.9375 C-12.7290625 15.9684375 -12.7290625 15.9684375 -18 16 Z " fill="#231920" transform="translate(27,5)"/>
<path d="M0 0 C0 0.99 0 1.98 0 3 C-2.18358109 4.98425004 -4.3500118 6.77592636 -6.6875 8.5625 C-7.36071289 9.08755127 -8.03392578 9.61260254 -8.72753906 10.15356445 C-10.12361524 11.24025679 -11.5229177 12.32281606 -12.92529297 13.40136719 C-14.88858143 14.91414817 -16.83868729 16.44223249 -18.78515625 17.9765625 C-27.5690908 24.8563636 -27.5690908 24.8563636 -31 26 C-30.4533512 17.81911794 -28.82876132 9.98214061 -27 2 C-25.87972412 1.96241577 -25.87972412 1.96241577 -24.73681641 1.92407227 C-21.36602733 1.80831787 -17.99553217 1.68549872 -14.625 1.5625 C-13.449375 1.52318359 -12.27375 1.48386719 -11.0625 1.44335938 C-9.94101562 1.40146484 -8.81953125 1.35957031 -7.6640625 1.31640625 C-6.62717285 1.27974854 -5.5902832 1.24309082 -4.52197266 1.20532227 C-2.00574834 1.15835777 -2.00574834 1.15835777 0 0 Z " fill="#F56B8A" transform="translate(60,31)"/>
<path d="M0 0 C5.44693314 -0.09688221 10.63904667 -0.12862175 16 1 C16 1.33 16 1.66 16 2 C11.05 2 6.1 2 1 2 C1 9.26 1 16.52 1 24 C8.26 23.67 15.52 23.34 23 23 C21.875 34.25 21.875 34.25 21 38 C21.81404297 37.33291016 21.81404297 37.33291016 22.64453125 36.65234375 C23.35996094 36.08644531 24.07539062 35.52054688 24.8125 34.9375 C25.52019531 34.36902344 26.22789063 33.80054688 26.95703125 33.21484375 C27.63121094 32.81394531 28.30539063 32.41304687 29 32 C29.99 32.33 30.98 32.66 32 33 C30.58994275 34.15395711 29.17166542 35.29787466 27.75 36.4375 C26.96109375 37.07558594 26.1721875 37.71367188 25.359375 38.37109375 C23.13752508 39.90505305 21.63256518 40.57130246 19 41 C18.79181697 35.06678378 19.26379884 32.07670404 21 26 C13.74 26 6.48 26 -1 26 C-1.20625 23.009375 -1.4125 20.01875 -1.625 16.9375 C-1.69541504 16.00929443 -1.76583008 15.08108887 -1.83837891 14.12475586 C-2.15323399 8.9185214 -1.74954443 4.92142843 0 0 Z " fill="#18131D" transform="translate(8,19)"/>
<path d="M0 0 C7.26 0 14.52 0 22 0 C22 7 22 7 21 9 C14.07 9 7.14 9 0 9 C0 6.03 0 3.06 0 0 Z " fill="#F77A67" transform="translate(9,34)"/>
<path d="M0 0 C1.2065625 0.0309375 1.2065625 0.0309375 2.4375 0.0625 C2.4375 0.7225 2.4375 1.3825 2.4375 2.0625 C3.4275 2.0625 4.4175 2.0625 5.4375 2.0625 C4.45205437 4.71562285 3.42390344 7.08459441 1.9375 9.5 C0.31206821 12.06310978 0.31206821 12.06310978 -0.5625 15.1875 C-1.54031256 17.9987111 -2.20997432 19.29810574 -4.5625 21.0625 C-5.2225 21.0625 -5.8825 21.0625 -6.5625 21.0625 C-4.86917637 0.1187604 -4.86917637 0.1187604 0 0 Z " fill="#F755C0" transform="translate(35.5625,35.9375)"/>
<path d="M0 0 C4.83256305 0.41421969 6.82679218 2.46413986 10 6 C7.03824877 5.38722388 5.61941217 4.74627478 3 3 C4.32 10.59 5.64 18.18 7 26 C13.93 26.495 13.93 26.495 21 27 C21 27.33 21 27.66 21 28 C16.05 28 11.1 28 6 28 C5.67 31.3 5.34 34.6 5 38 C3 36 3 36 2.77294922 34.02880859 C2.78865967 32.8505249 2.78865967 32.8505249 2.8046875 31.6484375 C2.81435547 30.37226562 2.81435547 30.37226562 2.82421875 29.0703125 C2.84097656 28.18085937 2.85773437 27.29140625 2.875 26.375 C2.88402344 25.4778125 2.89304687 24.580625 2.90234375 23.65625 C2.9259503 21.43723414 2.9588769 19.21874923 3 17 C1.02 16.67 -0.96 16.34 -3 16 C-3 15.67 -3 15.34 -3 15 C-1.35 15 0.3 15 2 15 C1.855625 14.33613281 1.71125 13.67226563 1.5625 12.98828125 C1.376875 12.10527344 1.19125 11.22226562 1 10.3125 C0.814375 9.44238281 0.62875 8.57226562 0.4375 7.67578125 C0.01027953 5.06287036 -0.07616201 2.64186962 0 0 Z " fill="#251B20" transform="translate(27,5)"/>
<path d="M0 0 C1.875 0.5625 1.875 0.5625 4 2 C6.38283909 7.55995788 5.97169033 12.2092509 5 18 C5.66 18 6.32 18 7 18 C7 19.98 7 21.96 7 24 C12.94 24 18.88 24 25 24 C25 24.66 25 25.32 25 26 C21.6871348 25.86179731 18.37482011 25.71316222 15.0625 25.5625 C14.11697266 25.52318359 13.17144531 25.48386719 12.19726562 25.44335938 C11.29814453 25.40146484 10.39902344 25.35957031 9.47265625 25.31640625 C8.64000244 25.27974854 7.80734863 25.24309082 6.94946289 25.20532227 C5 25 5 25 4 24 C3.45606705 21.10592197 2.95992709 18.2200589 2.5 15.3125 C2.36980469 14.50876953 2.23960938 13.70503906 2.10546875 12.87695312 C1.85130696 11.30705477 1.59865713 9.73691074 1.34765625 8.16650391 C0.91050655 5.44229995 0.45714842 2.72091226 0 0 Z " fill="#DE7749" transform="translate(29,7)"/>
<path d="M0 0 C4.29 0 8.58 0 13 0 C14 4 14 4 13.0625 6.25 C12.711875 6.8275 12.36125 7.405 12 8 C11.01 8 10.02 8 9 8 C8.773125 8.9075 8.54625 9.815 8.3125 10.75 C6.81872023 14.44888324 5.24599423 15.77905658 2 18 C1.62184369 13.62756771 2.65694173 11.34852855 5 7.6875 C5.556875 6.80449219 6.11375 5.92148437 6.6875 5.01171875 C7.120625 4.34785156 7.55375 3.68398438 8 3 C7.01 3 6.02 3 5 3 C5 2.34 5 1.68 5 1 C3.35 1 1.7 1 0 1 C0 0.67 0 0.34 0 0 Z " fill="#F46596" transform="translate(33,35)"/>
<path d="M0 0 C-0.33 2.31 -0.66 4.62 -1 7 C-7.93 7 -14.86 7 -22 7 C-21.67 6.01 -21.34 5.02 -21 4 C-19.33710938 3.94392578 -19.33710938 3.94392578 -17.640625 3.88671875 C-16.17705026 3.82104552 -14.71351009 3.75459865 -13.25 3.6875 C-12.52039062 3.66494141 -11.79078125 3.64238281 -11.0390625 3.61914062 C-6.92043036 3.41320902 -3.1192112 0 0 0 Z " fill="#E049BB" transform="translate(31,36)"/>
<path d="M0 0 C0.33 0 0.66 0 1 0 C1.33 2.64 1.66 5.28 2 8 C8.93 8.495 8.93 8.495 16 9 C16 9.33 16 9.66 16 10 C11.05 10 6.1 10 1 10 C0.67 13.3 0.34 16.6 0 20 C-2 18 -2 18 -2.01171875 14.62890625 C-1.91455536 13.27261183 -1.80601122 11.91709602 -1.6875 10.5625 C-1.63916016 9.88123047 -1.59082031 9.19996094 -1.54101562 8.49804688 C-1.30754991 5.48072415 -0.96081176 2.88243528 0 0 Z " fill="#5D2F3B" transform="translate(32,23)"/>
<path d="M0 0 C0 0.99 0 1.98 0 3 C-1.53125 4.38671875 -1.53125 4.38671875 -3.5 5.6875 C-4.1496875 6.12449219 -4.799375 6.56148437 -5.46875 7.01171875 C-5.9740625 7.33785156 -6.479375 7.66398437 -7 8 C-7 6.35 -7 4.7 -7 3 C-13.6 3 -20.2 3 -27 3 C-27 2.67 -27 2.34 -27 2 C-25.87972412 1.96241577 -25.87972412 1.96241577 -24.73681641 1.92407227 C-21.36602733 1.80831787 -17.99553217 1.68549872 -14.625 1.5625 C-13.449375 1.52318359 -12.27375 1.48386719 -11.0625 1.44335938 C-9.94101562 1.40146484 -8.81953125 1.35957031 -7.6640625 1.31640625 C-6.62717285 1.27974854 -5.5902832 1.24309082 -4.52197266 1.20532227 C-2.00574834 1.15835777 -2.00574834 1.15835777 0 0 Z " fill="#E76D6F" transform="translate(60,31)"/>
<path d="M0 0 C4.31618954 0.5289448 7.22246146 3.25148275 10.5 5.875 C11.63533345 6.76833494 12.77074818 7.66156658 13.90625 8.5546875 C14.9271875 9.36164062 15.948125 10.16859375 17 11 C18.329179 12.00551528 19.66038911 13.00842527 21 14 C20.67 14.99 20.34 15.98 20 17 C19.47792969 16.5153125 18.95585938 16.030625 18.41796875 15.53125 C13.22548913 10.80254701 7.84058061 6.59744402 2.08984375 2.56640625 C1.40019531 2.04949219 0.71054687 1.53257813 0 1 C0 0.67 0 0.34 0 0 Z " fill="#2A1E1C" transform="translate(35,11)"/>
<path d="M0 0 C1.32 0 2.64 0 4 0 C3.39009109 3.55780196 2.4216319 6.6828589 1 10 C0.34 10 -0.32 10 -1 10 C-1.33 10.66 -1.66 11.32 -2 12 C-2.28571429 3.42857143 -2.28571429 3.42857143 0 0 Z " fill="#F34AD7" transform="translate(33,39)"/>
<path d="M0 0 C6.6 0 13.2 0 20 0 C16.625 3.375 16.625 3.375 12.98828125 3.51171875 C12.23095703 3.54716797 11.47363281 3.58261719 10.69335938 3.61914062 C9.90767578 3.64169922 9.12199219 3.66425781 8.3125 3.6875 C7.11657227 3.73874023 7.11657227 3.73874023 5.89648438 3.79101562 C3.93148096 3.87338104 1.96576304 3.93837067 0 4 C0 2.68 0 1.36 0 0 Z " fill="#F66498" transform="translate(9,37)"/>
<path d="M0 0 C3.96 0 7.92 0 12 0 C9.75 5.625 9.75 5.625 6 8 C6.66 6.35 7.32 4.7 8 3 C7.01 3 6.02 3 5 3 C5 2.34 5 1.68 5 1 C3.35 1 1.7 1 0 1 C0 0.67 0 0.34 0 0 Z " fill="#F75FA7" transform="translate(33,35)"/>
<path d="M0 0 C1.58015913 2.01111162 2.89448806 3.72404569 3.8125 6.125 C5.59028199 8.9320242 7.89068731 9.18887495 11 10 C11 10.33 11 10.66 11 11 C8.03 11 5.06 11 2 11 C2 9.02 2 7.04 2 5 C1.34 5 0.68 5 0 5 C0 3.35 0 1.7 0 0 Z " fill="#F88848" transform="translate(34,20)"/>
<path d="M0 0 C4.83256305 0.41421969 6.82679218 2.46413986 10 6 C7.03824877 5.38722388 5.61941217 4.74627478 3 3 C2.34 4.32 1.68 5.64 1 7 C0.67 4.69 0.34 2.38 0 0 Z " fill="#191519" transform="translate(27,5)"/>
<path d="M0 0 C1.32 0.66 2.64 1.32 4 2 C-0.455 4.97 -0.455 4.97 -5 8 C-5 5 -5 5 -3 2 C-2.01 2 -1.02 2 0 2 C0 1.34 0 0.68 0 0 Z " fill="#EA6A76" transform="translate(45,41)"/>
<path d="M0 0 C1.65 0 3.3 0 5 0 C5 0.66 5 1.32 5 2 C5.99 2 6.98 2 8 2 C7.67 2.99 7.34 3.98 7 5 C6.67 4.34 6.34 3.68 6 3 C4.02 3 2.04 3 0 3 C-0.33 3.66 -0.66 4.32 -1 5 C-0.67 3.35 -0.34 1.7 0 0 Z " fill="#EE52BA" transform="translate(33,36)"/>
<path d="M0 0 C1.46132217 2.92264434 2.34099246 4.92463146 3 8 C1.02 8.99 1.02 8.99 -1 10 C-0.67 6.7 -0.34 3.4 0 0 Z " fill="#C941AB" transform="translate(30,47)"/>
<path d="M0 0 C-1.08927638 3.26782914 -1.68347929 3.81937333 -4.375 5.75 C-4.98085938 6.19859375 -5.58671875 6.6471875 -6.2109375 7.109375 C-8 8 -8 8 -11 7 C-9.54634731 5.82750647 -8.08692581 4.66216184 -6.625 3.5 C-5.40683594 2.52546875 -5.40683594 2.52546875 -4.1640625 1.53125 C-2 0 -2 0 0 0 Z " fill="#2E1D25" transform="translate(49,43)"/>
<path d="M0 0 C4.29 0 8.58 0 13 0 C13.33 0.66 13.66 1.32 14 2 C12.02 2.33 10.04 2.66 8 3 C8 2.34 8 1.68 8 1 C5.36 1 2.72 1 0 1 C0 0.67 0 0.34 0 0 Z " fill="#F7864A" transform="translate(46,30)"/>
<path d="M0 0 C0.33 0.66 0.66 1.32 1 2 C1.66 2 2.32 2 3 2 C3 3.98 3 5.96 3 8 C2.01 8 1.02 8 0 8 C0 5.36 0 2.72 0 0 Z " fill="#F47D5B" transform="translate(33,23)"/>
<path d="M0 0 C3.35595828 0.59927826 5.37801226 1.84622436 8 4 C7.67 4.99 7.34 5.98 7 7 C5.83040013 6.02433888 4.66438823 5.044375 3.5 4.0625 C2.8503125 3.51722656 2.200625 2.97195312 1.53125 2.41015625 C1.0259375 1.94480469 0.520625 1.47945312 0 1 C0 0.67 0 0.34 0 0 Z " fill="#35251F" transform="translate(48,21)"/>
</svg>
