<svg width="54" height="54" viewBox="0 0 54 54" fill="none" xmlns="http://www.w3.org/2000/svg">
<path d="M13.8389 25.5157C13.8389 25.5157 27.1074 20.2151 31.7092 18.3487C33.4731 17.6022 39.4554 15.2131 39.4554 15.2131C39.4554 15.2131 42.2164 14.1681 41.9864 16.7062C41.9096 17.7514 41.296 21.4095 40.6824 25.3662C39.7621 30.9655 38.765 37.0871 38.765 37.0871C38.765 37.0871 38.6118 38.8042 37.308 39.1028C36.004 39.4015 33.8566 38.0576 33.4731 37.759C33.1664 37.5349 27.721 34.1755 25.727 32.5332C25.19 32.0853 24.5765 31.1893 25.8036 30.1441C28.5646 27.6807 31.8626 24.6197 33.8566 22.6787C34.7769 21.7828 35.6973 19.6924 31.8626 22.2306C26.4172 25.8887 21.0484 29.323 21.0484 29.323C21.0484 29.323 19.8215 30.0695 17.5206 29.3976C15.2197 28.7257 12.5353 27.8299 12.5353 27.8299C12.5353 27.8299 10.6948 26.7099 13.8393 25.5157H13.8389Z" stroke="white" stroke-width="2"/>
</svg>
